<svg width="21" height="24" viewBox="0 0 21 24" fill="none" xmlns="http://www.w3.org/2000/svg">
<path fill-rule="evenodd" clip-rule="evenodd" d="M10.6262 0.0606881C10.4109 0.126126 10.0737 0.475391 10.0124 0.696501C9.98474 0.795782 9.9621 1.14664 9.96196 1.47613C9.96173 1.91624 9.94612 2.07917 9.90309 2.08991C9.87089 2.09797 9.58082 2.16866 9.25856 2.24708C7.97353 2.55969 6.96145 3.14075 5.9752 4.13225C5.01735 5.09521 4.40334 6.23933 4.09964 7.62702C4.00532 8.05789 3.99417 8.28144 3.96168 10.3926C3.92948 12.4851 3.91743 12.73 3.82635 13.1442C3.51196 14.5736 2.88876 15.6642 1.7557 16.7676C1.12214 17.3846 0.985682 17.6505 0.985354 18.2686C0.98512 18.6519 0.99951 18.7207 1.13859 19.0033C1.32871 19.3894 1.69907 19.7414 2.0751 19.8932L2.34449 20.002L10.782 20.016C16.9379 20.0262 19.2955 20.0155 19.5007 19.9767C20.2432 19.8361 20.7734 19.3105 20.928 18.5619C20.9918 18.2531 20.9602 17.9599 20.8232 17.588C20.7442 17.3735 20.632 17.2341 20.1563 16.7593C19.12 15.7249 18.5783 14.8547 18.2368 13.6753C18.0058 12.8777 17.9778 12.5495 17.9767 10.627C17.9752 7.90475 17.8709 7.25005 17.2304 5.93952C16.4753 4.39475 15.1916 3.19035 13.6135 2.54633C13.1675 2.36431 12.2947 2.1192 12.0927 2.1192C11.9893 2.1192 11.9872 2.10786 11.9705 1.4278C11.9544 0.771923 11.9468 0.725001 11.8235 0.515001C11.593 0.122235 11.0729 -0.0750619 10.6262 0.0606881ZM7.28981 21.0284C7.28981 21.1078 7.5111 21.7356 7.60542 21.9239C8.06798 22.8469 8.96953 23.5866 9.98512 23.8764C10.4722 24.0154 11.4127 24.0267 11.8836 23.8992C12.6247 23.6986 13.3858 23.2111 13.8535 22.6376C14.1127 22.3197 14.4643 21.646 14.5746 21.2559L14.6441 21.0098H10.967C8.94454 21.0098 7.28981 21.0182 7.28981 21.0284Z" fill="#008CC2"/>
</svg>
