<svg width="25" height="25" viewBox="0 0 25 25" fill="none" xmlns="http://www.w3.org/2000/svg">
<path fill-rule="evenodd" clip-rule="evenodd" d="M20.1857 0.0722825C20.096 0.118855 19.9746 0.228651 19.916 0.316309C19.8105 0.474366 19.8096 0.489046 19.8096 2.10803V3.74037L18.1798 3.75435C16.6388 3.76757 16.5411 3.77353 16.3874 3.86377C16.0554 4.05888 15.9407 4.50758 16.1408 4.82885C16.3298 5.13235 16.2917 5.12616 18.1211 5.15191L19.7861 5.17536L19.8096 6.84035C19.8353 8.66977 19.8291 8.63164 20.1326 8.82065C20.4539 9.02078 20.9026 8.90611 21.0977 8.57405C21.188 8.4204 21.1939 8.32266 21.2071 6.78172L21.2211 5.15191H22.8535C24.4724 5.15191 24.4871 5.15102 24.6452 5.04544C25.0735 4.75935 25.0626 4.19386 24.6224 3.86503C24.4984 3.77236 24.4246 3.76776 22.857 3.75435L21.2211 3.74037L21.2071 2.10446C21.1937 0.536838 21.1891 0.463109 21.0964 0.339056C20.8593 0.0216292 20.4913 -0.0861495 20.1857 0.0722825ZM8.64711 3.04647C7.47824 3.17897 6.34605 3.83694 5.63231 4.7986C4.94403 5.72593 4.6425 6.80775 4.75821 7.93497C5.01194 10.4079 7.30316 12.2346 9.74295 11.9093C10.7261 11.7782 11.5422 11.3891 12.2523 10.7127C14.0615 8.9895 14.1389 6.21347 12.428 4.41228C12.0119 3.97431 11.6415 3.70806 11.079 3.44278C10.5698 3.20265 10.2416 3.11063 9.65548 3.04356C9.18591 2.98981 9.14637 2.98991 8.64711 3.04647ZM8.62366 15.0965C6.61226 15.2383 4.81993 16.0564 3.39179 17.4845C1.90653 18.9697 1.10766 20.7619 0.975213 22.9057C0.945994 23.3786 0.95195 23.4404 1.04374 23.6203C1.11048 23.7512 1.20629 23.849 1.32932 23.9117C1.51261 24.0052 1.58976 24.0062 9.19632 24.0061C16.4163 24.006 16.8881 24.0011 17.0415 23.924C17.1312 23.8789 17.2526 23.7703 17.3112 23.6826C17.4032 23.5449 17.4176 23.4629 17.4176 23.0785C17.4176 22.0747 17.1256 20.8479 16.6335 19.7851C15.8916 18.1824 14.4982 16.7587 12.8706 15.9404C11.5923 15.2977 10.0676 14.9947 8.62366 15.0965Z" fill="#008CC2"/>
</svg>
