<svg width="40" height="27" viewBox="0 0 40 27" fill="none" xmlns="http://www.w3.org/2000/svg">
<path d="M38.3333 0H7.77778C6.32931 0 5.09424 0.928959 4.63556 2.22222H1.66667C0.746181 2.22222 0 2.9684 0 3.88889V22.7778C0 24.9256 1.74111 26.6667 3.88889 26.6667H38.3333C39.2538 26.6667 40 25.9205 40 25V1.66667C40 0.746181 39.2538 0 38.3333 0ZM3.33333 22.7778V5.55556H4.44444V22.7778C4.44444 23.0841 4.19521 23.3333 3.88889 23.3333C3.58257 23.3333 3.33333 23.0841 3.33333 22.7778ZM36.6667 23.3333H7.73764C7.76361 23.1518 7.77778 22.9665 7.77778 22.7778V3.33333H36.6667V23.3333ZM11.9444 15H21.3889C21.8491 15 22.2222 14.6269 22.2222 14.1667V7.5C22.2222 7.03979 21.8491 6.66667 21.3889 6.66667H11.9444C11.4842 6.66667 11.1111 7.03979 11.1111 7.5V14.1667C11.1111 14.6269 11.4842 15 11.9444 15ZM13.8889 9.44445H19.4444V12.2222H13.8889V9.44445ZM11.1111 19.1667V17.5C11.1111 17.0398 11.4842 16.6667 11.9444 16.6667H21.3889C21.8491 16.6667 22.2222 17.0398 22.2222 17.5V19.1667C22.2222 19.6269 21.8491 20 21.3889 20H11.9444C11.4842 20 11.1111 19.6269 11.1111 19.1667ZM24.4444 19.1667V17.5C24.4444 17.0398 24.8176 16.6667 25.2778 16.6667H32.5C32.9602 16.6667 33.3333 17.0398 33.3333 17.5V19.1667C33.3333 19.6269 32.9602 20 32.5 20H25.2778C24.8176 20 24.4444 19.6269 24.4444 19.1667ZM24.4444 9.16667V7.5C24.4444 7.03979 24.8176 6.66667 25.2778 6.66667H32.5C32.9602 6.66667 33.3333 7.03979 33.3333 7.5V9.16667C33.3333 9.62688 32.9602 10 32.5 10H25.2778C24.8176 10 24.4444 9.62688 24.4444 9.16667ZM24.4444 14.1667V12.5C24.4444 12.0398 24.8176 11.6667 25.2778 11.6667H32.5C32.9602 11.6667 33.3333 12.0398 33.3333 12.5V14.1667C33.3333 14.6269 32.9602 15 32.5 15H25.2778C24.8176 15 24.4444 14.6269 24.4444 14.1667Z" fill="#5C5C5C"/>
</svg>
