<svg width="18" height="18" viewBox="0 0 18 18" fill="none" xmlns="http://www.w3.org/2000/svg">
<path fill-rule="evenodd" clip-rule="evenodd" d="M6.82071 0.0130787C5.08468 0.101025 3.40454 0.862257 2.1272 2.13956C1.09028 3.17652 0.384169 4.50969 0.123495 5.92278C-0.466734 9.12218 1.0964 12.2773 4.00642 13.7602C5.60335 14.574 7.50276 14.7587 9.24548 14.2695C9.86666 14.0951 10.7526 13.6947 11.2036 13.3846L11.4115 13.2417L13.5398 15.362C15.462 17.277 15.6903 17.4931 15.8968 17.5927C16.971 18.1108 18.1883 17.2112 17.9756 16.0565C17.8911 15.5982 17.8966 15.6045 15.5849 13.2931L13.4449 11.1533L13.733 10.585C14.2171 9.63002 14.4416 8.83287 14.5272 7.7653C14.6823 5.83002 13.9849 3.83046 12.646 2.37146C11.9667 1.63126 11.2255 1.08877 10.321 0.669689C9.77967 0.4189 9.57932 0.346502 9.07732 0.220246C8.32358 0.0307032 7.66539 -0.0296986 6.82071 0.0130787ZM8.06956 2.4174C10.0219 2.73658 11.6067 4.21915 12.0569 6.14782C12.4352 7.76805 11.9681 9.46563 10.8147 10.6633C9.8642 11.6501 8.62507 12.1806 7.27128 12.1801C5.96422 12.1796 4.7336 11.6667 3.80009 10.7332C3.10929 10.0424 2.66269 9.21235 2.45285 8.22924C2.3431 7.7151 2.34376 6.82755 2.45426 6.30936C2.74213 4.95977 3.49552 3.86033 4.63963 3.12024C5.22233 2.7433 5.8483 2.51499 6.64482 2.38887C6.87707 2.35211 7.78074 2.37019 8.06956 2.4174Z" fill="#008CC2"/>
</svg>
